<svg width="544" height="110" viewBox="0 0 544 110" fill="none" xmlns="http://www.w3.org/2000/svg">
<path d="M89.033 0L41.032 33.566L60.475 47.151L66.802 42.728V66.732L0 20.058V109.547H23.686V63.888L89.033 109.546V0Z" fill="#FF230A"/>
<path opacity="0.2" d="M66.802 72.741V66.732L30.191 41.153L66.802 72.741Z" fill="black"/>
<path d="M140.893 65.4426V78.4338H128.687V39.4612H157.918C171.956 39.4612 176.094 45.0139 176.094 52.1379V52.6614C176.094 59.6282 171.851 65.4426 157.918 65.4426H140.893ZM140.893 56.6946H157.708C161.532 56.6946 163.365 55.2805 163.365 52.6086V52.4514C163.365 49.7805 161.636 48.3137 157.708 48.3137H140.893V56.6946Z" fill="white"/>
<path d="M210.872 71.3098H187.247L183.737 78.4338H171.322L191.018 39.4612H206.837L227.686 78.4338H214.539L210.872 71.3098ZM198.823 47.8948L191.594 62.509H206.367L198.823 47.8948Z" fill="white"/>
<path d="M243.342 78.4338H231.136V39.4612H262.567C275.558 39.4612 279.487 43.9661 279.487 49.5706V50.1995C279.487 55.804 274.825 57.8997 272.257 58.7376C276.239 59.8899 279.644 62.6663 279.644 67.6956V73.4046C279.644 76.5481 280.01 77.5432 280.377 78.1721V78.4338H267.962C267.481 77.7093 267.276 76.8352 267.386 75.9719V71.467C267.386 66.6994 265.291 64.6047 259.266 64.6047H243.342V78.4338ZM243.342 55.9612H261.834C265.343 55.9612 266.757 54.2854 266.757 52.1379V52.0852C266.757 50.0422 265.395 48.3137 261.834 48.3137H243.342V55.9612Z" fill="white"/>
<path d="M300.486 48.6799H283.723V39.4612H329.611V48.6799H312.795V78.4338H300.486V48.6799Z" fill="white"/>
<path d="M348.986 39.4612L373.868 63.9758V39.4612H385.917V78.4338H373.868L347.415 52.6086V78.4338H335.367V39.4612H348.986Z" fill="white"/>
<path d="M434.259 39.4612V48.3137H405.239V54.0754H433.578V62.9807H405.239V69.3713H434.783V78.4338H393.191V39.4612H434.259Z" fill="white"/>
<path d="M453.373 78.4338H441.168V39.4612H472.597C485.588 39.4612 489.517 43.9661 489.517 49.5706V50.1995C489.517 55.804 484.855 57.8997 482.288 58.7376C486.269 59.8899 489.674 62.6663 489.674 67.6956V73.4046C489.674 76.5481 490.041 77.5432 490.408 78.1721V78.4338H477.993C477.511 77.7093 477.306 76.8352 477.417 75.9719V71.467C477.417 66.6994 475.321 64.6047 469.297 64.6047H453.373V78.4338ZM453.373 55.9612H471.864C475.374 55.9612 476.788 54.2854 476.788 52.1379V52.0852C476.788 50.0422 475.425 48.3137 471.864 48.3137H453.373V55.9612Z" fill="white"/>
<path d="M516.592 79.1145C496.163 79.1145 493.805 70.3147 493.805 65.1809V64.6047H506.535C506.692 66.9622 508.053 70.7854 518.111 70.7854H518.844C529.112 70.7854 530.264 68.7424 530.264 66.6477C530.264 64.3948 529.059 62.9807 520.049 62.719L513.344 62.5618C498.782 62.1428 494.33 57.219 494.33 51.1419V50.6711C494.33 44.8567 497.787 38.7795 515.545 38.7795H519.159C537.598 38.7795 541.789 45.2229 541.789 51.0901V51.6135H529.112C528.85 50.1467 528.064 46.9514 517.849 46.9514H517.011C507.583 46.9514 506.901 48.6282 506.901 50.304C506.901 51.9807 507.949 53.4993 515.912 53.6565L522.46 53.762C537.127 54.0237 543.046 57.5852 543.046 65.3381V66.0715C543.046 72.5149 539.798 79.1145 520.207 79.1145L516.592 79.1145Z" fill="white"/>
</svg>
